<svg width="24" height="24" viewBox="0 0 24 24" fill="none" xmlns="http://www.w3.org/2000/svg">
<path d="M16.794 3.75002C18.118 3.75002 19.362 4.26602 20.298 5.20102C21.2262 6.13093 21.7475 7.39113 21.7475 8.70502C21.7475 10.0189 21.2262 11.2791 20.298 12.209L12 20.508L3.70102 12.209C2.77313 11.2791 2.25201 10.0192 2.25201 8.70552C2.25201 7.39188 2.77313 6.13189 3.70102 5.20202C4.16005 4.74032 4.7061 4.37425 5.30757 4.12501C5.90903 3.87578 6.55396 3.74832 7.20502 3.75002C8.52902 3.75002 9.77302 4.26602 10.709 5.20102L11.469 5.96102L12 6.49202L12.53 5.96102L13.29 5.20102C13.7492 4.73963 14.2953 4.37384 14.8968 4.12478C15.4982 3.87573 16.1431 3.74835 16.794 3.75002Z" stroke="black" stroke-width="1.5"/>
</svg>
