<svg width="24" height="24" viewBox="0 0 24 24" fill="none" xmlns="http://www.w3.org/2000/svg">
<path d="M21.75 12C21.75 14.5859 20.7228 17.0658 18.8943 18.8943C17.0658 20.7228 14.5859 21.75 12 21.75M21.75 12C21.75 9.41414 20.7228 6.93419 18.8943 5.10571C17.0658 3.27723 14.5859 2.25 12 2.25M21.75 12C21.75 14.071 17.385 15.75 12 15.75C6.615 15.75 2.25 14.071 2.25 12M21.75 12C21.75 9.929 17.385 8.25 12 8.25C6.615 8.25 2.25 9.929 2.25 12M12 21.75C9.41414 21.75 6.93419 20.7228 5.10571 18.8943C3.27723 17.0658 2.25 14.5859 2.25 12M12 21.75C14.9 21.75 17.25 17.385 17.25 12C17.25 6.615 14.9 2.25 12 2.25M12 21.75C9.1 21.75 6.75 17.385 6.75 12C6.75 6.615 9.1 2.25 12 2.25M12 2.25C9.41414 2.25 6.93419 3.27723 5.10571 5.10571C3.27723 6.93419 2.25 9.41414 2.25 12" stroke="black" stroke-width="1.5" stroke-miterlimit="10"/>
</svg>
