<svg width="24" height="24" viewBox="0 0 24 24" fill="none" xmlns="http://www.w3.org/2000/svg">
<path fill-rule="evenodd" clip-rule="evenodd" d="M13.182 3.73295C13.17 3.69395 13.17 3.69395 13.17 3.66095C13.1589 3.40519 13.2497 3.15547 13.4226 2.96665C13.5955 2.77784 13.8363 2.66537 14.092 2.65395C14.3475 2.64389 14.5966 2.73512 14.7852 2.90778C14.9738 3.08044 15.0866 3.32057 15.099 3.57595C15.1107 3.83102 15.0207 4.08031 14.8488 4.2691C14.6769 4.45789 14.4371 4.57077 14.182 4.58295C14.155 4.58695 14.12 4.58295 14.081 4.58295C14.065 4.58695 14.041 4.58695 14.025 4.60495C13.969 4.68895 14.165 4.67795 14.02 5.04495C14.02 5.04495 14.02 5.08295 14.008 5.12195C13.996 5.26195 13.928 5.68395 13.912 5.91495C13.941 5.95495 13.952 5.96495 13.941 6.04495C13.9191 6.22421 13.889 6.40239 13.851 6.57895C13.811 6.71895 13.755 6.75295 13.704 6.78095C13.631 7.07895 13.609 7.32595 13.423 7.68595C13.401 7.96195 13.378 8.03595 13.317 8.16995C13.3 8.56995 13.327 8.62995 13.036 9.27095C12.956 9.57095 13.019 9.77795 13.086 10.0919C13.154 10.4129 13.362 10.5529 13.384 10.8849C13.434 11.6559 13.401 12.1899 13.221 12.7919L13.356 13.1399C13.536 13.2239 13.974 13.4659 13.716 13.8149C14.059 14.0049 14.581 14.2089 14.996 14.5959C15.172 14.7429 15.346 14.9109 15.509 15.0959C15.825 15.1529 15.785 15.1759 16.015 15.3269C16.69 15.7649 17.764 16.6309 18.388 17.2329C18.5 17.2999 18.535 17.3449 18.624 17.3959C18.634 17.4189 18.641 17.43 18.634 17.436C18.608 17.508 18.608 17.5079 18.574 17.5759C18.613 17.6159 18.669 17.649 18.708 17.683C18.748 17.688 18.748 17.6769 18.804 17.6659C18.883 17.7389 18.984 17.801 19.018 17.801C19.124 17.779 19.102 17.7959 19.203 17.7009C19.232 17.6659 19.287 17.7009 19.287 17.7009C19.327 17.6609 19.4 17.5819 19.501 17.5249C19.58 17.4799 19.731 17.4799 19.731 17.4799C19.783 17.4859 19.771 17.5309 19.76 17.5529C19.703 17.5759 19.58 17.6099 19.513 17.6609C19.361 17.8009 19.237 18.0139 19.237 18.0139C19.536 17.9809 19.721 18.059 19.956 18.037C20.092 18.032 20.193 18.0429 20.333 17.9469C20.333 17.9469 20.473 17.8509 20.598 17.8069C20.716 17.7569 20.828 17.7899 20.928 17.8689C20.997 17.9529 21.047 17.9529 20.928 18.0649C20.884 18.1099 20.828 18.161 20.748 18.235C20.615 18.358 20.435 18.526 20.248 18.667C20.0832 18.7891 19.9066 18.8946 19.721 18.982C19.383 19.212 19.461 19.1559 19.198 19.3759C19.168 19.3979 19.074 19.454 19.035 19.482C18.928 19.544 18.9 19.488 18.838 19.364C18.838 19.364 18.81 19.319 18.758 19.224C18.708 19.117 18.668 18.9939 18.686 18.9939C18.624 18.9869 18.355 18.6499 18.355 18.5839C18.292 18.5709 18.051 18.3239 18.045 18.2739L17.831 18.0939C17.578 18.1379 17.521 17.9809 16.87 17.4859C16.79 17.4799 16.673 17.4359 16.51 17.3119C16.212 17.0589 15.503 16.497 15.386 16.429C15.256 16.362 15.105 16.2949 15.003 16.2149C14.857 16.1929 14.785 16.165 14.705 16.148C14.625 16.126 14.565 16.0909 14.379 16.0689C14.076 16.0239 13.761 15.8889 13.468 15.7319C13.328 15.6589 13.204 15.6249 13.086 15.5629C12.816 15.4389 12.58 15.3269 12.4 15.2829C12.2009 15.2351 12.0096 15.159 11.832 15.0569C11.771 15.0229 11.737 14.9969 11.698 14.9839C11.608 14.9619 11.545 14.9899 11.506 15.0059C11.276 15.1139 11.068 15.2089 10.87 15.3159C10.69 15.4059 10.522 15.5019 10.342 15.6019C10.1672 15.6932 9.98909 15.7779 9.80801 15.8559C9.80801 15.8559 9.27401 16.1089 8.97601 16.2039C8.71601 16.4009 8.18901 16.75 7.86901 16.919C7.71101 16.992 7.40201 17.1709 7.26101 17.2109C7.18101 17.2719 6.89001 17.4689 6.66501 17.6319C6.48501 17.7559 6.35501 17.863 6.35501 17.863C6.24901 17.947 6.25401 17.993 6.07501 17.908C6.02997 17.9376 5.98658 17.9696 5.94501 18.0039C5.80501 18.0989 5.79901 18.0769 5.74301 18.0709C5.64201 18.1509 5.63001 18.1109 5.54601 18.2009C5.48501 18.2849 5.54601 18.2619 5.42801 18.3069C5.40001 18.3129 5.38801 18.347 5.37101 18.363C5.27701 18.436 5.27101 18.656 5.04601 18.667C4.91101 18.757 4.93901 18.87 4.84901 18.858C4.84901 18.96 4.66901 19.0879 4.63501 19.0879C4.34301 19.1839 4.33101 18.9699 3.98901 19.1229C3.94401 19.1389 3.87601 19.195 3.79201 19.207C3.64001 19.229 3.46001 19.2009 3.34801 19.1049C3.22207 18.9874 3.11243 18.8536 3.02201 18.707C2.97101 18.577 3.00501 18.4989 3.18501 18.3749C3.25801 18.3299 3.26901 18.2959 3.39301 18.2909C3.45301 18.2669 3.43801 18.3009 3.54301 18.2669C3.60701 18.2509 3.60701 18.2619 3.73601 18.2619C3.76401 18.2449 3.80301 18.2399 3.86001 18.2169C3.96001 18.1829 4.05601 18.155 4.05601 18.155C4.05601 18.155 4.08401 18.1319 4.18001 18.1449C4.25801 18.1099 4.34901 18.0649 4.39401 18.0479C4.38201 17.9239 4.39901 17.924 4.45401 17.874C4.53401 17.812 4.54401 17.8239 4.60201 17.8639C4.62401 17.8569 4.64101 17.8509 4.62901 17.8289C4.61901 17.7559 4.56801 17.722 4.58401 17.582C4.56201 17.525 4.52301 17.453 4.53401 17.408C4.54401 17.363 4.56201 17.3389 4.59001 17.3289C4.61901 17.3169 4.63501 17.3349 4.64701 17.3509C4.67501 17.3849 4.69701 17.4859 4.69701 17.4859C4.70301 17.6039 4.73701 17.7459 4.84901 17.6659C4.91601 17.6039 4.93301 17.4239 5.06301 17.4629L5.15901 17.5479C5.24301 17.4749 5.24301 17.4749 5.29901 17.4409C5.29901 17.4409 5.21901 17.3679 5.28701 17.3059C5.33201 17.2669 5.39501 17.2389 5.49501 17.1309C5.77101 16.8389 5.91701 16.711 6.20901 16.474C6.72761 16.0814 7.29975 15.7652 7.90801 15.5349C8.05401 15.3609 8.18801 15.2489 8.49301 15.2309C8.87001 14.6249 9.57801 14.0949 9.74101 14.0109C9.87501 13.7809 9.93101 13.8029 10.106 13.7639C10.241 13.6569 10.281 13.6569 10.336 13.5499C10.399 13.3199 10.224 12.6899 10.719 12.6729C10.831 12.5269 10.797 12.5609 10.915 12.4249C10.8562 12.2635 10.8166 12.0957 10.797 11.9249C10.792 11.9089 10.601 11.7679 10.667 11.5929C10.5622 11.4592 10.4723 11.3143 10.399 11.1609C10.3775 11.1603 10.3562 11.1563 10.336 11.1489C10.314 11.1439 10.281 11.1439 10.246 11.1439C10.168 11.3399 10.083 11.3519 9.94301 11.3969C9.68301 11.9089 9.59301 12.1279 8.89701 12.5389C8.61701 12.8369 8.51501 13.1789 8.51501 13.1729C8.47257 13.275 8.46831 13.389 8.50301 13.4939C8.45801 13.6009 8.47601 13.6179 8.47601 13.6179C8.48601 13.6629 8.53201 13.7239 8.58201 13.7299C8.66101 13.7529 8.75101 13.7529 8.74001 13.8479C8.72901 13.9609 8.57701 13.9379 8.50301 13.9209C8.22801 13.8709 8.31801 13.6909 8.13801 13.7469C7.99701 13.8319 7.94201 14.0949 7.72201 14.0569C7.69401 14.0339 7.70501 13.9829 7.72801 13.9379C7.75601 13.8779 7.81201 13.8199 7.78401 13.7979C7.63801 13.8379 7.35101 13.9209 7.35101 13.9209C7.21601 13.9609 7.07001 13.8819 7.20401 13.7969C7.26701 13.7749 7.35701 13.7469 7.46901 13.6789C7.46901 13.6789 7.53101 13.6069 7.41201 13.6399C7.27729 13.6804 7.13626 13.6957 6.99601 13.6849C6.99601 13.6849 6.73901 13.6459 6.70401 13.6289C6.67601 13.6069 6.64301 13.5219 6.72101 13.5289C6.91054 13.526 7.09924 13.5032 7.28401 13.4609C7.37901 13.4259 7.56401 13.3209 7.66601 13.2749C7.66601 13.2749 7.77901 13.1179 7.84601 13.0849C7.95301 12.9709 8.03601 12.9049 8.12601 12.7859C8.21601 12.6059 8.31801 12.3259 8.62601 11.8799C8.78213 11.6471 8.96137 11.4307 9.16101 11.2339C9.16101 11.2339 9.22301 10.8959 9.50401 10.6609C9.56701 10.5209 9.66101 10.3509 9.76301 10.1989C9.80159 10.1451 9.83698 10.089 9.86901 10.0309C9.95901 9.90095 10.055 9.65395 10.387 9.62095C10.387 9.62095 10.534 9.51895 10.584 9.44595C10.668 9.37295 10.658 9.25995 10.724 9.18695C10.618 9.08095 10.359 8.87795 10.342 8.61395C10.3311 8.48608 10.3492 8.3574 10.3951 8.23755C10.441 8.11771 10.5135 8.00981 10.607 7.92195C10.803 7.73695 11.005 7.64695 11.253 7.66395C11.562 7.71895 11.619 7.82095 11.708 7.92195C11.798 8.02295 11.838 7.96195 11.871 8.06795C12.13 8.14095 12.119 8.11295 12.108 8.30395C12.153 8.36095 12.214 8.41195 12.208 8.51795C12.293 8.34295 12.316 8.30995 12.552 8.11895C12.614 7.96195 12.652 7.80395 12.702 7.64095C12.754 7.49495 12.816 7.34295 12.856 7.23095C12.816 6.90495 12.916 6.85395 13.052 6.56695C13.03 6.52795 13.036 6.51695 13.046 6.45495C13.103 6.26295 13.182 6.02195 13.232 5.85895C13.232 5.85895 13.249 5.79595 13.317 5.79595C13.377 5.59395 13.474 5.21695 13.496 5.13295C13.558 4.92495 13.525 4.84595 13.486 4.72295C13.474 4.68295 13.48 4.63295 13.456 4.58695C13.3871 4.45295 13.3237 4.31617 13.266 4.17695C13.238 4.10395 13.186 3.82295 13.186 3.82295C13.182 3.76095 13.182 3.73295 13.182 3.73295Z" fill="black"/>
</svg>
